<mxfile host="app.diagrams.net" modified="2024-01-16T06:49:50.404Z" agent="Mozilla/5.0 (Macintosh; Intel Mac OS X 10_15_7) AppleWebKit/537.36 (KHTML, like Gecko) Chrome/120.0.0.0 Safari/537.36" etag="Bwta2RBnyo802D0O0es3" version="22.1.18" type="device">
  <diagram name="Page-1" id="SHYGNo-NXLBP1U8kok_d">
    <mxGraphModel dx="2074" dy="1121" grid="1" gridSize="10" guides="1" tooltips="1" connect="1" arrows="1" fold="1" page="1" pageScale="1" pageWidth="827" pageHeight="1169" math="0" shadow="0">
      <root>
        <mxCell id="0" />
        <mxCell id="1" parent="0" />
        <mxCell id="d7VmFjyg6JvHjT66L2Jd-1" value="" style="whiteSpace=wrap;html=1;aspect=fixed;" vertex="1" parent="1">
          <mxGeometry x="210" y="320" width="570" height="570" as="geometry" />
        </mxCell>
        <mxCell id="d7VmFjyg6JvHjT66L2Jd-4" value="" style="endArrow=classic;html=1;rounded=0;entryX=0.07;entryY=0.493;entryDx=0;entryDy=0;entryPerimeter=0;" edge="1" parent="1">
          <mxGeometry width="50" height="50" relative="1" as="geometry">
            <mxPoint x="110" y="583" as="sourcePoint" />
            <mxPoint x="239.9000000000001" y="584.01" as="targetPoint" />
            <Array as="points">
              <mxPoint x="180" y="584" />
            </Array>
          </mxGeometry>
        </mxCell>
        <mxCell id="d7VmFjyg6JvHjT66L2Jd-5" value="client access" style="text;html=1;align=center;verticalAlign=middle;resizable=0;points=[];autosize=1;strokeColor=none;fillColor=none;" vertex="1" parent="1">
          <mxGeometry x="110" y="610" width="90" height="30" as="geometry" />
        </mxCell>
        <mxCell id="d7VmFjyg6JvHjT66L2Jd-6" value="kuberentes cluster" style="text;html=1;align=center;verticalAlign=middle;resizable=0;points=[];autosize=1;strokeColor=none;fillColor=none;" vertex="1" parent="1">
          <mxGeometry x="425" y="278" width="120" height="30" as="geometry" />
        </mxCell>
        <mxCell id="d7VmFjyg6JvHjT66L2Jd-9" value="load&lt;br&gt;balancer" style="rounded=0;whiteSpace=wrap;html=1;direction=south;" vertex="1" parent="1">
          <mxGeometry x="240" y="385" width="60" height="440" as="geometry" />
        </mxCell>
        <mxCell id="d7VmFjyg6JvHjT66L2Jd-11" value="nginx pod" style="whiteSpace=wrap;html=1;aspect=fixed;" vertex="1" parent="1">
          <mxGeometry x="334" y="545" width="80" height="80" as="geometry" />
        </mxCell>
        <mxCell id="d7VmFjyg6JvHjT66L2Jd-13" value="nginx pod" style="whiteSpace=wrap;html=1;aspect=fixed;" vertex="1" parent="1">
          <mxGeometry x="334" y="450" width="80" height="80" as="geometry" />
        </mxCell>
        <mxCell id="d7VmFjyg6JvHjT66L2Jd-14" value="nginx pod" style="whiteSpace=wrap;html=1;aspect=fixed;" vertex="1" parent="1">
          <mxGeometry x="334" y="640" width="80" height="80" as="geometry" />
        </mxCell>
        <mxCell id="d7VmFjyg6JvHjT66L2Jd-15" value="" style="endArrow=classic;html=1;rounded=0;" edge="1" parent="1" source="d7VmFjyg6JvHjT66L2Jd-9">
          <mxGeometry width="50" height="50" relative="1" as="geometry">
            <mxPoint x="284" y="530" as="sourcePoint" />
            <mxPoint x="334" y="480" as="targetPoint" />
          </mxGeometry>
        </mxCell>
        <mxCell id="d7VmFjyg6JvHjT66L2Jd-16" value="" style="endArrow=classic;html=1;rounded=0;exitX=0.477;exitY=0;exitDx=0;exitDy=0;exitPerimeter=0;entryX=0.075;entryY=0.625;entryDx=0;entryDy=0;entryPerimeter=0;" edge="1" parent="1" source="d7VmFjyg6JvHjT66L2Jd-9" target="d7VmFjyg6JvHjT66L2Jd-11">
          <mxGeometry width="50" height="50" relative="1" as="geometry">
            <mxPoint x="290" y="625" as="sourcePoint" />
            <mxPoint x="330" y="595" as="targetPoint" />
          </mxGeometry>
        </mxCell>
        <mxCell id="d7VmFjyg6JvHjT66L2Jd-17" value="" style="endArrow=classic;html=1;rounded=0;entryX=0.013;entryY=0.625;entryDx=0;entryDy=0;entryPerimeter=0;" edge="1" parent="1" target="d7VmFjyg6JvHjT66L2Jd-14">
          <mxGeometry width="50" height="50" relative="1" as="geometry">
            <mxPoint x="300" y="690" as="sourcePoint" />
            <mxPoint x="330" y="690" as="targetPoint" />
          </mxGeometry>
        </mxCell>
        <mxCell id="d7VmFjyg6JvHjT66L2Jd-18" value="flask&lt;br&gt;service&lt;br&gt;" style="rounded=1;whiteSpace=wrap;html=1;direction=south;" vertex="1" parent="1">
          <mxGeometry x="465" y="410" width="60" height="430" as="geometry" />
        </mxCell>
      </root>
    </mxGraphModel>
  </diagram>
</mxfile>
